<?xml version="1.0" encoding="UTF-8"?>
<svg version="1.1" xmlns="http://www.w3.org/2000/svg" width="128" height="128">
<path d="M0 0 C0.92039062 0.40089844 1.84078125 0.80179687 2.7890625 1.21484375 C18.14983705 8.67888209 30.25852758 23.04404758 36 39 C41.28713449 55.96366825 39.34311371 75.00211669 31.6484375 90.76953125 C22.91443191 106.65175929 8.51484948 117.72444632 -8.60546875 123.140625 C-22.00376726 126.28244929 -39.45250005 125.86899191 -52 120 C-52.92039063 119.59910156 -53.84078125 119.19820313 -54.7890625 118.78515625 C-70.14983705 111.32111791 -82.25852758 96.95595242 -88 81 C-92.4569992 66.78154479 -92.36125114 47.59991622 -86 34 C-85.59910156 33.07960937 -85.19820313 32.15921875 -84.78515625 31.2109375 C-77.32111791 15.85016295 -62.95595242 3.74147242 -47 -2 C-32.78154479 -6.4569992 -13.59991622 -6.36125114 0 0 Z " fill="#FCFDFD" transform="translate(90,4)"/>
<path d="M0 0 C10.9207705 3.41274078 19.23799144 13.19978463 24.375 23 C30.29175925 35.78212935 31.01229963 49.52732737 26.32421875 62.93359375 C20.40987746 76.62904481 10.73809516 86.44444448 -2.96484375 92.2578125 C-14.55106714 96.35380742 -26.26068182 96.27232658 -38.05859375 92.94921875 C-38.69925781 92.63597656 -39.33992188 92.32273437 -40 92 C-41 89 -41 89 -40.0234375 86.93359375 C-34.4250727 78.45644895 -28.46443015 70.25279056 -22.48583984 62.04101562 C-20.58502133 59.42996687 -18.68933649 56.81585802 -16.8125 54.1875 C-16.30332031 53.47980469 -15.79414062 52.77210937 -15.26953125 52.04296875 C-12.56018042 47.68299803 -11.46494835 43.06096852 -10.37890625 38.08203125 C-10.23347885 37.42474533 -10.08805145 36.76745941 -9.93821716 36.09025574 C-9.47561807 33.99853227 -9.01844337 31.90568358 -8.5625 29.8125 C-3.52050701 6.68962277 -3.52050701 6.68962277 0 0 Z " fill="#FDFDFD" transform="translate(85,19)"/>
<path d="M0 0 C0.92039062 0.40089844 1.84078125 0.80179687 2.7890625 1.21484375 C18.14983705 8.67888209 30.25852758 23.04404758 36 39 C41.28713449 55.96366825 39.34311371 75.00211669 31.6484375 90.76953125 C22.91443191 106.65175929 8.51484948 117.72444632 -8.60546875 123.140625 C-22.00376726 126.28244929 -39.45250005 125.86899191 -52 120 C-52.92039063 119.59910156 -53.84078125 119.19820313 -54.7890625 118.78515625 C-70.14983705 111.32111791 -82.25852758 96.95595242 -88 81 C-92.4569992 66.78154479 -92.36125114 47.59991622 -86 34 C-85.59910156 33.07960937 -85.19820313 32.15921875 -84.78515625 31.2109375 C-77.32111791 15.85016295 -62.95595242 3.74147242 -47 -2 C-32.78154479 -6.4569992 -13.59991622 -6.36125114 0 0 Z M-69.5234375 22.05078125 C-81.19178776 35.9460564 -84.50059892 51.31407941 -83 69 C-81.09082859 82.08019087 -74.26284991 92.85211454 -65 102 C-64.45859375 102.56332031 -63.9171875 103.12664062 -63.359375 103.70703125 C-51.91037161 114.66453702 -37.03589398 117.63857051 -21.83203125 117.30859375 C-6.01300743 116.55974583 6.88618787 109.11311049 17.58984375 97.82421875 C29.44980261 83.92673049 32.32045265 67.73021202 31 50 C28.27662265 34.39800082 19.05237985 21.42733442 6.45703125 12.12109375 C-18.55101966 -3.74251883 -49.30917656 0.7005604 -69.5234375 22.05078125 Z " fill="#309E9F" transform="translate(90,4)"/>
<path d="M0 0 C3.58437991 2.77549305 6.81662794 5.77662147 10 9 C10.56332031 9.54140625 11.12664062 10.0828125 11.70703125 10.640625 C21.10362121 20.45869789 25.40684561 33.99494337 25.3125 47.3125 C25.30686035 48.14918213 25.3012207 48.98586426 25.29541016 49.84790039 C24.98187281 65.86469177 18.3329998 78.82718395 7 90 C6.15308594 90.86238281 6.15308594 90.86238281 5.2890625 91.7421875 C-5.69481514 102.08310645 -20.2552828 105.52395098 -34.87353516 105.41967773 C-51.09670933 104.92023137 -64.448599 97.61088937 -75.51953125 85.96484375 C-81.4309465 78.89907339 -85.76518284 70.95645954 -88 62 C-88.18175781 61.27683594 -88.36351563 60.55367188 -88.55078125 59.80859375 C-91.25883596 42.87736473 -88.08212634 26.9987888 -78 13 C-57.99861726 -10.81868134 -26.51436119 -16.31925301 0 0 Z M-73 13 C-83.39487512 26.70233538 -86.48598027 40.73458938 -84.7265625 57.625 C-84.29709872 59.82904054 -83.71922354 61.87261247 -83 64 C-82.69320312 64.93070312 -82.38640625 65.86140625 -82.0703125 66.8203125 C-77.07834748 80.28140439 -67.67547569 90.25108231 -54.80859375 96.56640625 C-47.23811765 99.82681988 -40.93721713 101.18024431 -32.6875 101.1875 C-31.96626953 101.19974609 -31.24503906 101.21199219 -30.50195312 101.22460938 C-16.12295206 101.26329727 -3.1167316 95.00778219 7 85 C18.3927425 72.03249275 21.91432079 58.03306424 21.17919922 41.14355469 C20.12145912 28.49102324 13.05594406 16.64185517 4 8 C-19.34500121 -11.48800101 -52.32529976 -9.25028148 -73 13 Z " fill="#F1F6F6" transform="translate(96,16)"/>
<path d="M0 0 C0.72123047 -0.01224609 1.44246094 -0.02449219 2.18554688 -0.03710938 C16.56454794 -0.07579727 29.5707684 6.17971781 39.6875 16.1875 C48.99630241 26.783014 53.86264014 38.4468375 53.875 52.5 C53.88724609 53.22123047 53.89949219 53.94246094 53.91210938 54.68554688 C53.95079727 69.06454794 47.69528219 82.0707684 37.6875 92.1875 C24.71999275 103.5802425 10.72056424 107.10182079 -6.16894531 106.36669922 C-18.82147676 105.30895912 -30.67064483 98.24344406 -39.3125 89.1875 C-50.3093975 76.0141332 -53.80527276 61.09203297 -52.3125 44.1875 C-49.64152028 30.20682898 -42.04925365 17.98136591 -30.625 9.5 C-21.00580852 3.07249743 -11.4929981 0.01010818 0 0 Z M-37.27734375 19.6796875 C-47.32812364 32.06471762 -50.76525152 45.38882719 -49.3125 61.1875 C-46.68219762 75.04355719 -39.11365597 87.06120516 -27.5234375 95.12890625 C-15.09071419 102.8230593 -2.14056085 105.20202295 12.21484375 102.53125 C25.44227749 98.88230276 36.46253752 91.02001699 43.9375 79.5 C50.89608579 67.02778066 52.5421202 53.96571294 49.625 40 C45.70073078 26.42020325 36.74868896 15.30214458 24.40234375 8.47265625 C2.95334341 -1.68089931 -20.95387679 2.20083903 -37.27734375 19.6796875 Z " fill="#3DA2A3" transform="translate(63.3125,10.8125)"/>
<path d="M0 0 C1.52439366 3.04878732 0.4516817 5.23177536 -0.29296875 8.51953125 C-0.44026932 9.17394699 -0.58756989 9.82836273 -0.73933411 10.50260925 C-1.05474749 11.89629557 -1.37359224 13.28920897 -1.69555664 14.68139648 C-2.17635335 16.7642126 -2.64475587 18.84950455 -3.11132812 20.93554688 C-8.64294085 45.39744594 -8.64294085 45.39744594 -15.4375 54.1875 C-16.49611504 55.61847383 -17.55470796 57.04946403 -18.61328125 58.48046875 C-19.16322754 59.21056152 -19.71317383 59.9406543 -20.27978516 60.69287109 C-22.0905945 63.12150412 -23.85238124 65.58019932 -25.60546875 68.05078125 C-26.19336182 68.87747314 -26.78125488 69.70416504 -27.38696289 70.5559082 C-28.52898907 72.16186749 -29.67012978 73.76845688 -30.81030273 75.37573242 C-31.58869507 76.45818237 -31.58869507 76.45818237 -32.3828125 77.5625 C-32.84059082 78.20316406 -33.29836914 78.84382813 -33.77001953 79.50390625 C-35 81 -35 81 -37 82 C-35.56576669 73.49241464 -33.78123838 65.07370034 -31.81567383 56.67529297 C-31.48067349 55.22703824 -31.15414229 53.77679794 -30.83618164 52.32470703 C-28.71508526 42.65599727 -26.06278866 35.03803115 -20 27 C-19.55873779 26.39397949 -19.11747559 25.78795898 -18.6628418 25.16357422 C-17.5353648 23.64801046 -16.36238573 22.16661508 -15.1875 20.6875 C-9.89612053 13.95179519 -4.93298043 7.00063394 0 0 Z " fill="#37A0A1" transform="translate(82,23)"/>
<path d="M0 0 C2.0747036 4.1494072 -0.67810933 10.05790756 -1.75048828 14.48608398 C-2.24810363 16.55461701 -2.72414986 18.6273608 -3.19921875 20.70117188 C-3.51171282 22.01072948 -3.8254726 23.31998584 -4.140625 24.62890625 C-4.42454102 25.82588135 -4.70845703 27.02285645 -5.00097656 28.25610352 C-5.3306543 29.16158936 -5.66033203 30.0670752 -6 31 C-9.70781672 32.23593891 -10.67510253 31.5678132 -14.1875 30.0625 C-15.08855469 29.68222656 -15.98960938 29.30195312 -16.91796875 28.91015625 C-17.60503906 28.60980469 -18.29210938 28.30945313 -19 28 C-17.40297344 22.96397758 -14.37295052 19.24644143 -11.1875 15.125 C-10.13854924 13.75319542 -9.09036525 12.38080416 -8.04296875 11.0078125 C-7.53556152 10.34426758 -7.0281543 9.68072266 -6.50537109 8.99707031 C-4.27629255 6.03990805 -2.13627067 3.02473813 0 0 Z " fill="#E40818" transform="translate(82,23)"/>
<path d="M0 0 C2.375 1.625 2.375 1.625 4 4 C4.61195145 7.6717087 4.48706506 9.28813568 2.375 12.375 C-0.71186432 14.48706506 -2.3282913 14.61195145 -6 14 C-8.375 12.375 -8.375 12.375 -10 10 C-10.61195145 6.3282913 -10.48706506 4.71186432 -8.375 1.625 C-5.28813568 -0.48706506 -3.6717087 -0.61195145 0 0 Z " fill="#F8FAFA" transform="translate(67,57)"/>
</svg>
